<svg aria-hidden="true" style="position:absolute;width:0;height:0;overflow:hidden" xmlns="http://www.w3.org/2000/svg"><defs><symbol id="icon-bag" viewBox="0 0 32 32"><path fill="#ff9b62" style="fill:var(--color1, #ff9b62)" d="M13.333 21.333V20h-9.32L4 25.333A2.658 2.658 0 0 0 6.667 28h18.667a2.658 2.658 0 0 0 2.667-2.667V20h-9.333v1.333h-5.333zm13.333-12h-5.347V6.666l-2.667-2.667h-5.333l-2.667 2.667v2.667h-5.32A2.675 2.675 0 0 0 2.665 12v4a2.658 2.658 0 0 0 2.667 2.667h8V16h5.333v2.667h8c1.467 0 2.667-1.2 2.667-2.667v-4c0-1.467-1.2-2.667-2.667-2.667zm-8 0h-5.333V6.666h5.333v2.667z"/></symbol><symbol id="icon-clock" viewBox="0 0 34 32"><path fill="#ff9b62" style="fill:var(--color1, #ff9b62)" d="M12.801 9.6v9.6l7.52 4.64 1.28-1.92-6.4-3.84V9.6h-2.4z"/><path fill="#ff9b62" style="fill:var(--color1, #ff9b62)" d="M25.472 16c.08.528.128 1.056.128 1.6 0 6.24-4.96 11.2-11.2 11.2S3.2 23.84 3.2 17.6c0-6.24 4.96-11.2 11.2-11.2 1.12 0 2.192.16 3.2.464V3.568a14.014 14.014 0 0 0-3.2-.368C6.4 3.2 0 9.6 0 17.6S6.4 32 14.4 32a14.34 14.34 0 0 0 14.304-16h-3.232z"/><path fill="#ff9b62" style="fill:var(--color1, #ff9b62)" d="M28.801 4.8V0h-3.2v4.8h-4.8V8h4.8v4.8h3.2V8h4.8V4.8h-4.8z"/></symbol><symbol id="icon-house" viewBox="0 0 32 32"><path fill="#ff9b62" style="fill:var(--color1, #ff9b62)" d="M15.999 9.333V4H2.666v24h26.667V9.333H16zm-8 16H5.332v-2.667h2.667v2.667zm0-5.333H5.332v-2.667h2.667V20zm0-5.333H5.332V12h2.667v2.667zm0-5.334H5.332V6.666h2.667v2.667zm5.334 16h-2.667v-2.667h2.667v2.667zm0-5.333h-2.667v-2.667h2.667V20zm0-5.333h-2.667V12h2.667v2.667zm0-5.334h-2.667V6.666h2.667v2.667zm13.333 16H15.999v-2.667h2.667v-2.667h-2.667v-2.667h2.667v-2.667h-2.667v-2.667h10.667v13.333zm-2.667-10.666h-2.667v2.667h2.667v-2.667zm0 5.333h-2.667v2.667h2.667V20z"/></symbol><symbol id="icon-icf" viewBox="0 0 58 32"><path fill="#ff9b62" style="fill:var(--color1, #ff9b62)" d="M2.828 28.8V2.634h7.105V28.8H2.828zM27.313 8.057c-.835 0-1.581.179-2.237.537-.656.346-1.217.853-1.682 1.521s-.823 1.486-1.074 2.452c-.239.955-.358 2.04-.358 3.257 0 1.647.209 3.031.626 4.152s1.05 1.969 1.897 2.541c.859.573 1.933.859 3.222.859 1.169 0 2.291-.161 3.365-.483a33.634 33.634 0 0 0 3.275-1.163v5.978a15.996 15.996 0 0 1-3.561 1.11c-1.205.227-2.488.34-3.848.34-2.84 0-5.166-.561-6.98-1.682-1.802-1.134-3.132-2.703-3.991-4.707-.847-2.005-1.271-4.331-1.271-6.98 0-1.981.274-3.794.823-5.441.561-1.647 1.378-3.072 2.452-4.278 1.074-1.217 2.398-2.154 3.973-2.81 1.587-.668 3.401-1.002 5.441-1.002 1.265 0 2.595.149 3.991.447 1.408.286 2.78.752 4.116 1.396l-2.166 5.566c-.955-.453-1.921-.835-2.899-1.145s-2.016-.465-3.114-.465zM46.483 28.8h-6.962V2.634h15.464v5.674h-8.501v4.993h7.839v5.674h-7.839v9.826z"/></symbol><symbol id="icon-ok" viewBox="0 0 32 32"><path fill="#ff9b62" style="fill:var(--color1, #ff9b62)" d="M12.001 28h12a2.648 2.648 0 0 0 2.453-1.627l4.027-9.4c.12-.307.187-.627.187-.973v-2.667c0-1.467-1.2-2.667-2.667-2.667h-8.413l1.267-6.093.04-.427c0-.547-.227-1.053-.587-1.413l-1.413-1.4-8.787 8.787A2.65 2.65 0 0 0 9.335 12v13.333c0 1.467 1.2 2.667 2.667 2.667zm0-16 5.787-5.787-1.787 7.12h12V16l-4 9.333h-12V12zM1.334 12h5.333v16H1.334V12z"/></symbol><symbol id="icon-scale" viewBox="0 0 32 32"><path fill="#ff9b62" style="fill:var(--color1, #ff9b62)" d="m2.666 26.653 10-10.013 5.333 5.333 9.453-10.627 1.88 1.88-11.333 12.747-5.333-5.333-8 8.013-2-2zm2-6 8-8.013 5.333 5.333L29.332 5.226l-1.88-1.88-9.453 10.627-5.333-5.333-10 10.013 2 2z"/></symbol></defs></svg>