<svg aria-hidden="true" style="position:absolute;width:0;height:0;overflow:hidden"
    xmlns="http://www.w3.org/2000/svg">
    <defs>
        <symbol id="icon-scale" viewBox="0 0 32 32">
            <path d="m2.667 26.653 10-10.013L18 21.973l9.453-10.627 1.88 1.88L18 25.973l-5.333-5.333-8 8.013-2-2zm2-6 8-8.013L18 17.973 29.333 5.226l-1.88-1.88L18 13.973 12.667 8.64l-10 10.013 2 2z"/>
        </symbol>
        <symbol id="icon-ok" viewBox="0 0 32 32">
            <path d="M12 28h12a2.648 2.648 0 0 0 2.453-1.627l4.027-9.4c.12-.307.187-.627.187-.973v-2.667c0-1.467-1.2-2.667-2.667-2.667h-8.413l1.267-6.093.04-.427c0-.547-.227-1.053-.587-1.413l-1.413-1.4-8.787 8.787A2.65 2.65 0 0 0 9.334 12v13.333c0 1.467 1.2 2.667 2.667 2.667zm0-16 5.787-5.787L16 13.333h12V16l-4 9.333H12V12zM1.333 12h5.333v16H1.333V12z"/>
        </symbol>
        <symbol id="icon-icf" viewBox="0 0 32 32">
            <path d="M.125 23.805v-15.6h4.237v15.6H.125zm14.598-12.368c-.498 0-.942.107-1.334.32a2.859 2.859 0 0 0-.997.898l-.006.01c-.277.398-.491.885-.64 1.462-.143.569-.214 1.216-.214 1.942 0 .982.125 1.807.374 2.476s.626 1.174 1.132 1.515c.511.342 1.152.512 1.92.512.697 0 1.366-.096 2.006-.288a20.03 20.03 0 0 0 1.953-.693v3.564a9.56 9.56 0 0 1-2.123.662 12.42 12.42 0 0 1-2.295.203c-1.694 0-3.081-.335-4.162-1.004-1.074-.676-1.868-1.611-2.38-2.806-.505-1.196-.757-2.583-.757-4.162 0-1.18.164-2.262.49-3.244.335-.982.822-1.832 1.462-2.55a6.39 6.39 0 0 1 2.37-1.676c.946-.398 2.027-.597 3.244-.597a11.39 11.39 0 0 1 2.456.281l-.076-.014c.839.172 1.657.449 2.454.833L18.309 12.4a12.794 12.794 0 0 0-1.632-.656l-.096-.027a5.99 5.99 0 0 0-1.822-.278h-.037.002zm11.43 12.368h-4.151v-15.6h9.22v3.383h-5.069v2.977h4.674v3.383h-4.674v5.858z"/>
        </symbol>
        <symbol id="icon-house" viewBox="0 0 32 32">
            <path d="M16 9.333V4H2.667v24h26.667V9.333H16.001zm-8 16H5.333v-2.667H8v2.667zM8 20H5.333v-2.667H8V20zm0-5.333H5.333V12H8v2.667zm0-5.334H5.333V6.666H8v2.667zm5.333 16h-2.667v-2.667h2.667v2.667zm0-5.333h-2.667v-2.667h2.667V20zm0-5.333h-2.667V12h2.667v2.667zm0-5.334h-2.667V6.666h2.667v2.667zm13.334 16H16v-2.667h2.667v-2.667H16v-2.667h2.667v-2.667H16v-2.667h10.667v13.333zM24 14.667h-2.667v2.667H24v-2.667zM24 20h-2.667v2.667H24V20z"/>
        </symbol>
        <symbol id="icon-clock" viewBox="0 0 32 32">
            <path d="M12.19 9.905v9.143l7.162 4.419 1.219-1.829-6.095-3.657V9.905H12.19z"/>
            <path d="M24.259 16c.076.503.122 1.006.122 1.524 0 5.943-4.724 10.667-10.667 10.667S3.047 23.467 3.047 17.524 7.771 6.857 13.714 6.857c1.067 0 2.088.152 3.048.442V4.16a13.321 13.321 0 0 0-3.048-.35C6.095 3.81 0 9.905 0 17.524s6.095 13.714 13.714 13.714A13.657 13.657 0 0 0 27.337 16h-3.078z"/>
            <path d="M27.429 5.333V.762h-3.048v4.571H19.81v3.048h4.571v4.571h3.048V8.381H32V5.333h-4.571z"/>
        </symbol>
        <symbol id="icon-bag" viewBox="0 0 32 32">
            <path d="M13.333 21.333V20h-9.32L4 25.333A2.658 2.658 0 0 0 6.667 28h18.667a2.658 2.658 0 0 0 2.667-2.667V20h-9.333v1.333h-5.333zm13.334-12H21.32V6.666l-2.667-2.667H13.32l-2.667 2.667v2.667h-5.32A2.675 2.675 0 0 0 2.666 12v4a2.658 2.658 0 0 0 2.667 2.667h8V16h5.333v2.667h8c1.467 0 2.667-1.2 2.667-2.667v-4c0-1.467-1.2-2.667-2.667-2.667zm-8 0h-5.333V6.666h5.333v2.667z"/>
        </symbol>
    </defs>
</svg>