<svg width="44" height="44" viewBox="0 0 44 44" fill="none" xmlns="http://www.w3.org/2000/svg">
<rect width="44" height="44" rx="16" fill="#00A5CC"/>
<path d="M22.0048 16.6098C19.0235 16.6098 16.6188 19.0145 16.6188 21.9957C16.6188 24.977 19.0235 27.3816 22.0048 27.3816C24.986 27.3816 27.3907 24.977 27.3907 21.9957C27.3907 19.0145 24.986 16.6098 22.0048 16.6098ZM22.0048 25.4973C20.0782 25.4973 18.5032 23.927 18.5032 21.9957C18.5032 20.0645 20.0735 18.4941 22.0048 18.4941C23.936 18.4941 25.5063 20.0645 25.5063 21.9957C25.5063 23.927 23.9313 25.4973 22.0048 25.4973V25.4973ZM28.8673 16.3895C28.8673 17.0879 28.3048 17.6457 27.611 17.6457C26.9126 17.6457 26.3548 17.0832 26.3548 16.3895C26.3548 15.6957 26.9173 15.1332 27.611 15.1332C28.3048 15.1332 28.8673 15.6957 28.8673 16.3895ZM32.4345 17.6645C32.3548 15.9816 31.9704 14.491 30.7376 13.2629C29.5095 12.0348 28.0188 11.6504 26.336 11.566C24.6017 11.4676 19.4032 11.4676 17.6688 11.566C15.9907 11.6457 14.5001 12.0301 13.2673 13.2582C12.0345 14.4863 11.6548 15.977 11.5704 17.6598C11.472 19.3941 11.472 24.5926 11.5704 26.327C11.6501 28.0098 12.0345 29.5004 13.2673 30.7285C14.5001 31.9566 15.986 32.341 17.6688 32.4254C19.4032 32.5238 24.6017 32.5238 26.336 32.4254C28.0188 32.3457 29.5095 31.9613 30.7376 30.7285C31.9657 29.5004 32.3501 28.0098 32.4345 26.327C32.5329 24.5926 32.5329 19.3988 32.4345 17.6645V17.6645ZM30.1938 28.1879C29.8282 29.1066 29.1204 29.8145 28.197 30.1848C26.8142 30.7332 23.5329 30.6066 22.0048 30.6066C20.4767 30.6066 17.1907 30.7285 15.8126 30.1848C14.8938 29.8191 14.186 29.1113 13.8157 28.1879C13.2673 26.8051 13.3938 23.5238 13.3938 21.9957C13.3938 20.4676 13.272 17.1816 13.8157 15.8035C14.1813 14.8848 14.8892 14.177 15.8126 13.8066C17.1954 13.2582 20.4767 13.3848 22.0048 13.3848C23.5329 13.3848 26.8188 13.2629 28.197 13.8066C29.1157 14.1723 29.8235 14.8801 30.1938 15.8035C30.7423 17.1863 30.6157 20.4676 30.6157 21.9957C30.6157 23.5238 30.7423 26.8098 30.1938 28.1879Z" fill="#FAFCFC"/>
</svg>
