<svg width="44" height="44" viewBox="0 0 44 44" fill="none" xmlns="http://www.w3.org/2000/svg">
<rect width="44" height="44" rx="16" fill="#00A5CC"/>
<g clip-path="url(#clip0_905_542)">
<path d="M15.5691 17.9301V33.7439H10.3032V17.9301H15.5691ZM15.9043 13.0471C15.9149 13.8237 15.6463 14.4726 15.0984 14.9939C14.5505 15.5152 13.8298 15.7758 12.9362 15.7758H12.9043C12.0319 15.7758 11.3298 15.5152 10.7979 14.9939C10.266 14.4726 10 13.8237 10 13.0471C10 12.2598 10.2739 11.6083 10.8218 11.0923C11.3697 10.5763 12.0851 10.3184 12.9681 10.3184C13.8511 10.3184 14.5585 10.5763 15.0904 11.0923C15.6223 11.6083 15.8936 12.2598 15.9043 13.0471ZM34.5106 24.6801V33.7439H29.2606V25.2864C29.2606 24.1694 29.0452 23.2944 28.6144 22.6614C28.1835 22.0285 27.5106 21.712 26.5957 21.712C25.9255 21.712 25.3644 21.8955 24.9122 22.2625C24.4601 22.6295 24.1223 23.0843 23.8989 23.6269C23.7819 23.946 23.7234 24.3769 23.7234 24.9194V33.7439H18.4734C18.4947 29.4992 18.5053 26.0577 18.5053 23.4194C18.5053 20.7811 18.5 19.2067 18.4894 18.696L18.4734 17.9301H23.7234V20.2279H23.6915C23.9043 19.8875 24.1223 19.5896 24.3457 19.3343C24.5691 19.079 24.8697 18.8024 25.2473 18.5045C25.625 18.2067 26.0878 17.9753 26.6356 17.8104C27.1835 17.6455 27.7926 17.563 28.4628 17.563C30.2819 17.563 31.7447 18.1668 32.8511 19.3742C33.9574 20.5817 34.5106 22.3503 34.5106 24.6801Z" fill="#FAFCFC"/>
</g>
<defs>
<clipPath id="clip0_905_542">
<rect width="24.5106" height="24" fill="white" transform="translate(10 10)"/>
</clipPath>
</defs>
</svg>
