<svg width="48" height="42" fill="none" xmlns="http://www.w3.org/2000/svg"><path d="M43.5 21H36v-6c0-3.281 2.625-6 6-6h.75C43.969 9 45 8.062 45 6.75v-4.5C45 1.031 43.969 0 42.75 0H42c-8.344 0-15 6.75-15 15v22.5c0 2.531 1.969 4.5 4.5 4.5h12c2.438 0 4.5-1.969 4.5-4.5v-12c0-2.438-2.063-4.5-4.5-4.5Zm-27 0H9v-6c0-3.281 2.625-6 6-6h.75C16.969 9 18 8.062 18 6.75v-4.5C18 1.031 16.969 0 15.75 0H15C6.656 0 0 6.75 0 15v22.5C0 40.031 1.969 42 4.5 42h12c2.438 0 4.5-1.969 4.5-4.5v-12c0-2.438-2.063-4.5-4.5-4.5Z"/></svg>