<svg aria-hidden="true" style="position:absolute;width:0;height:0" xmlns="http://www.w3.org/2000/svg" overflow="hidden">
<defs>
<symbol id="close" viewBox="0 0 32 32">
<path d="M17.253 16l7.369-7.369c0.146-0.17 0.222-0.389 0.213-0.613s-0.102-0.436-0.26-0.594-0.37-0.251-0.594-0.26c-0.224-0.009-0.442 0.067-0.613 0.213l-7.369 7.369-7.369-7.378c-0.167-0.167-0.394-0.261-0.631-0.261s-0.464 0.094-0.631 0.261c-0.167 0.167-0.261 0.394-0.261 0.631s0.094 0.464 0.261 0.631l7.378 7.369-7.378 7.369c-0.093 0.080-0.169 0.178-0.222 0.288s-0.083 0.23-0.088 0.353c-0.005 0.122 0.016 0.245 0.061 0.359s0.112 0.218 0.199 0.304c0.087 0.087 0.19 0.154 0.304 0.199s0.236 0.065 0.359 0.061c0.122-0.005 0.243-0.035 0.353-0.088s0.208-0.129 0.288-0.222l7.378-7.369 7.369 7.369c0.17 0.146 0.389 0.222 0.613 0.213s0.436-0.101 0.594-0.26 0.251-0.37 0.26-0.594c0.009-0.224-0.068-0.442-0.213-0.612l-7.369-7.369z"></path>
</symbol>
<symbol id="vector" viewBox="0 0 48 32">
<path fill="#00a5cc" style="fill: var(--color1, #00a5cc)" d="M8 3.199l16 16 16-16 6.4 3.2-22.4 22.4-22.4-22.4 6.4-3.2z"></path>
</symbol>
<symbol id="quote-left" viewBox="0 0 36 32">
<path fill="#fcede4" style="fill: var(--color1, #fcede4)" d="M32.83 16h-5.66v-4.528c0-2.476 1.981-4.528 4.528-4.528h0.566c0.92 0 1.698-0.708 1.698-1.698v-3.396c0-0.92-0.778-1.698-1.698-1.698h-0.566c-6.297 0-11.321 5.094-11.321 11.321v16.981c0 1.91 1.486 3.396 3.396 3.396h9.057c1.84 0 3.396-1.486 3.396-3.396v-9.057c0-1.84-1.557-3.396-3.396-3.396zM12.453 16h-5.66v-4.528c0-2.476 1.981-4.528 4.528-4.528h0.566c0.92 0 1.698-0.708 1.698-1.698v-3.396c0-0.92-0.778-1.698-1.698-1.698h-0.566c-6.297 0-11.321 5.094-11.321 11.321v16.981c0 1.91 1.486 3.396 3.396 3.396h9.057c1.84 0 3.396-1.486 3.396-3.396v-9.057c0-1.84-1.557-3.396-3.396-3.396z"></path>
</symbol>
<symbol id="button-up" viewBox="0 0 32 32">
<path fill="#ffceb2" style="fill: var(--color1, #ffceb2)" d="M32 16c0 8.837-7.163 16-16 16s-16-7.163-16-16c0-8.837 7.163-16 16-16s16 7.163 16 16z"></path>
<path fill="#fafcfc" style="fill: var(--color2, #fafcfc)" d="M22.036 19.927l-5.891-5.818-5.891 5.818-2.356-1.164 8.247-8.145 8.247 8.145-2.356 1.164z"></path>
</symbol>
</defs>
</svg>
